#tb 0: 1/25
0,          0,          0,        1,  1382400, 0xecfdf606
0,          3,          3,        1,  1382400, 0x0b0382e1
0,          6,          6,        1,  1382400, 0xbef3afd6
0,          7,          7,        1,  1382400, 0x6a2bcabb
0,          8,          8,        1,  1382400, 0x663f991c
0,          9,          9,        1,  1382400, 0xb49b94d8
0,         10,         10,        1,  1382400, 0x07399433
0,         11,         11,        1,  1382400, 0x9cca09df
